<?xml version="1.0" encoding="UTF-8" standalone="no"?>
<svg
   viewBox="0 0 475.26617 748.64648"
   version="1.1"
   stroke-linecap="round"
   stroke-linejoin="round"
   fill-rule="evenodd"
   xml:space="preserve"
   id="svg485"
   sodipodi:docname="LOGO_230RCL.svg"
   width="475.26617"
   height="748.64648"
   inkscape:version="1.2.2 (732a01da63, 2022-12-09)"
   xmlns:inkscape="http://www.inkscape.org/namespaces/inkscape"
   xmlns:sodipodi="http://sodipodi.sourceforge.net/DTD/sodipodi-0.dtd"
   xmlns="http://www.w3.org/2000/svg"
   xmlns:svg="http://www.w3.org/2000/svg"><sodipodi:namedview
   id="namedview487"
   pagecolor="#ffffff"
   bordercolor="#000000"
   borderopacity="0.25"
   inkscape:showpageshadow="2"
   inkscape:pageopacity="0.0"
   inkscape:pagecheckerboard="0"
   inkscape:deskcolor="#d1d1d1"
   showgrid="false"
   inkscape:zoom="1.0794271"
   inkscape:cx="237.16285"
   inkscape:cy="372.41978"
   inkscape:window-width="1920"
   inkscape:window-height="1009"
   inkscape:window-x="1912"
   inkscape:window-y="-8"
   inkscape:window-maximized="1"
   inkscape:current-layer="svg485" />
<defs
   id="defs5">
<clipPath
   id="clipId0">
<path
   d="M 0,768 H 1024 V 0 H 0 Z"
   id="path2" />
</clipPath>
</defs>
<g
   clip-path="url(#clipId0)"
   fill="none"
   stroke="#000000"
   stroke-width="0.3"
   id="g7"
   transform="translate(-274.969,-11.789292)" />
<g
   clip-path="url(#clipId0)"
   fill="none"
   stroke="#000000"
   stroke-width="0.54"
   id="g13"
   transform="translate(-274.969,-11.789292)">
<polyline
   points="285.256,624.662 744.228,624.662 744.228,165.69 285.256,165.69 285.256,624.662 "
   id="polyline9" />
<polyline
   points="285.256,223.061 744.228,223.061 "
   id="polyline11" />
</g>
<g
   clip-path="url(#clipId0)"
   fill="#000000"
   stroke="#000000"
   stroke-width="0"
   id="g17"
   transform="translate(-274.969,-11.789292)">
<text
   transform="matrix(34.4229,0,0,34.4229,342.938,211.88)"
   font-family="Arial, sans-serif"
   font-size="1.39636px"
   id="text15">LOGO! 230RCL</text>
</g>
<g
   clip-path="url(#clipId0)"
   fill="none"
   stroke="#00ff00"
   stroke-width="0.54"
   id="g47"
   transform="translate(-274.969,-11.789292)">
<circle
   cx="313.94199"
   cy="142.741"
   r="5.7371502"
   id="circle19" />
<circle
   cx="342.62799"
   cy="142.741"
   r="5.7371502"
   id="circle21" />
<circle
   cx="313.94199"
   cy="647.60999"
   r="5.7371502"
   id="circle23" />
<circle
   cx="342.62799"
   cy="647.60999"
   r="5.7371502"
   id="circle25" />
<circle
   cx="371.314"
   cy="647.60999"
   r="5.7371502"
   id="circle27" />
<circle
   cx="428.685"
   cy="647.60999"
   r="5.7371502"
   id="circle29" />
<circle
   cx="457.371"
   cy="647.60999"
   r="5.7371502"
   id="circle31" />
<circle
   cx="486.05701"
   cy="647.60999"
   r="5.7371502"
   id="circle33" />
<circle
   cx="543.42798"
   cy="647.60999"
   r="5.7371502"
   id="circle35" />
<circle
   cx="572.11401"
   cy="647.60999"
   r="5.7371502"
   id="circle37" />
<circle
   cx="600.79999"
   cy="647.60999"
   r="5.7371502"
   id="circle39" />
<circle
   cx="658.17102"
   cy="647.60999"
   r="5.7371502"
   id="circle41" />
<circle
   cx="686.85699"
   cy="647.60999"
   r="5.7371502"
   id="circle43" />
<circle
   cx="715.54303"
   cy="647.60999"
   r="5.7371502"
   id="circle45" />
</g>
<g
   clip-path="url(#clipId0)"
   fill="none"
   stroke="#ff0000"
   stroke-width="0.54"
   id="g51"
   transform="translate(-274.969,-11.789292)">
<circle
   cx="744.22803"
   cy="395.17599"
   r="5.7371502"
   id="circle49" />
</g>
<g
   clip-path="url(#clipId0)"
   fill="none"
   stroke="#000000"
   stroke-width="0.54"
   id="g107"
   transform="translate(-274.969,-11.789292)">
<polyline
   points="342.628,624.662 342.628,607.45 "
   id="polyline53" />
<polyline
   points="336.891,607.45 348.365,607.45 "
   id="polyline55" />
<polyline
   points="371.314,624.662 371.314,607.45 "
   id="polyline57" />
<polyline
   points="371.314,607.45 365.577,607.45 "
   id="polyline59" />
<polyline
   points="313.942,624.662 313.942,607.45 "
   id="polyline61" />
<polyline
   points="313.942,607.45 319.679,607.45 "
   id="polyline63" />
<polyline
   points="319.679,607.45 336.891,602.861 "
   id="polyline65" />
<polyline
   points="365.577,607.45 348.365,602.861 "
   id="polyline67" />
<polyline
   points="457.371,624.662 457.371,607.45 "
   id="polyline69" />
<polyline
   points="451.634,607.45 463.108,607.45 "
   id="polyline71" />
<polyline
   points="486.057,624.662 486.057,607.45 "
   id="polyline73" />
<polyline
   points="486.057,607.45 480.319,607.45 "
   id="polyline75" />
<polyline
   points="428.685,624.662 428.685,607.45 "
   id="polyline77" />
<polyline
   points="428.685,607.45 434.422,607.45 "
   id="polyline79" />
<polyline
   points="572.114,624.662 572.114,607.45 "
   id="polyline81" />
<polyline
   points="566.377,607.45 577.851,607.45 "
   id="polyline83" />
<polyline
   points="600.8,624.662 600.8,607.45 "
   id="polyline85" />
<polyline
   points="600.8,607.45 595.062,607.45 "
   id="polyline87" />
<polyline
   points="543.428,624.662 543.428,607.45 "
   id="polyline89" />
<polyline
   points="543.428,607.45 549.165,607.45 "
   id="polyline91" />
<polyline
   points="686.857,624.662 686.857,607.45 "
   id="polyline93" />
<polyline
   points="681.12,607.45 692.594,607.45 "
   id="polyline95" />
<polyline
   points="715.543,624.662 715.543,607.45 "
   id="polyline97" />
<polyline
   points="715.543,607.45 709.805,607.45 "
   id="polyline99" />
<polyline
   points="658.171,624.662 658.171,607.45 "
   id="polyline101" />
<polyline
   points="658.171,607.45 663.908,607.45 "
   id="polyline103" />
<polyline
   points="313.942,165.69 313.942,142.741 "
   id="polyline105" />
</g>
<g
   clip-path="url(#clipId0)"
   fill="#000000"
   stroke="#000000"
   stroke-width="0"
   id="g111"
   transform="translate(-274.969,-11.789292)">
<text
   transform="matrix(11.4743,0,0,11.4743,315.067,159.953)"
   font-family="Arial, sans-serif"
   font-size="1.39636px"
   id="text109">L</text>
</g>
<g
   clip-path="url(#clipId0)"
   fill="none"
   stroke="#000000"
   stroke-width="0.54"
   id="g115"
   transform="translate(-274.969,-11.789292)">
<polyline
   points="342.628,165.69 342.628,142.741 "
   id="polyline113" />
</g>
<g
   clip-path="url(#clipId0)"
   fill="#000000"
   stroke="#000000"
   stroke-width="0"
   id="g119"
   transform="translate(-274.969,-11.789292)">
<text
   transform="matrix(11.4743,0,0,11.4743,343.707,159.953)"
   font-family="Arial, sans-serif"
   font-size="1.39636px"
   id="text117">N</text>
</g>
<g
   clip-path="url(#clipId0)"
   fill="none"
   stroke="#000000"
   stroke-width="0.54"
   id="g123"
   transform="translate(-274.969,-11.789292)">
<polyline
   points="399.999,165.69 399.999,142.741 "
   id="polyline121" />
</g>
<g
   clip-path="url(#clipId0)"
   fill="#000000"
   stroke="#000000"
   stroke-width="0"
   id="g127"
   transform="translate(-274.969,-11.789292)">
<text
   transform="matrix(11.4743,0,0,11.4743,400.803,159.976)"
   font-family="Arial, sans-serif"
   font-size="1.39636px"
   id="text125">I1</text>
</g>
<g
   clip-path="url(#clipId0)"
   fill="none"
   stroke="#00ff00"
   stroke-width="0.54"
   id="g131"
   transform="translate(-274.969,-11.789292)">
<circle
   cx="399.99899"
   cy="142.741"
   r="5.7371502"
   id="circle129" />
</g>
<g
   clip-path="url(#clipId0)"
   fill="none"
   stroke="#000000"
   stroke-width="0.54"
   id="g135"
   transform="translate(-274.969,-11.789292)">
<polyline
   points="428.685,165.69 428.685,142.741 "
   id="polyline133" />
</g>
<g
   clip-path="url(#clipId0)"
   fill="#000000"
   stroke="#000000"
   stroke-width="0"
   id="g139"
   transform="translate(-274.969,-11.789292)">
<text
   transform="matrix(11.4743,0,0,11.4743,429.488,159.976)"
   font-family="Arial, sans-serif"
   font-size="1.39636px"
   id="text137">I2</text>
</g>
<g
   clip-path="url(#clipId0)"
   fill="none"
   stroke="#00ff00"
   stroke-width="0.54"
   id="g143"
   transform="translate(-274.969,-11.789292)">
<circle
   cx="428.685"
   cy="142.741"
   r="5.7371502"
   id="circle141" />
</g>
<g
   clip-path="url(#clipId0)"
   fill="none"
   stroke="#000000"
   stroke-width="0.54"
   id="g147"
   transform="translate(-274.969,-11.789292)">
<polyline
   points="457.371,165.69 457.371,142.741 "
   id="polyline145" />
</g>
<g
   clip-path="url(#clipId0)"
   fill="#000000"
   stroke="#000000"
   stroke-width="0"
   id="g151"
   transform="translate(-274.969,-11.789292)">
<text
   transform="matrix(11.4743,0,0,11.4743,458.174,159.883)"
   font-family="Arial, sans-serif"
   font-size="1.39636px"
   id="text149">I3</text>
</g>
<g
   clip-path="url(#clipId0)"
   fill="none"
   stroke="#00ff00"
   stroke-width="0.54"
   id="g155"
   transform="translate(-274.969,-11.789292)">
<circle
   cx="457.371"
   cy="142.741"
   r="5.7371502"
   id="circle153" />
</g>
<g
   clip-path="url(#clipId0)"
   fill="none"
   stroke="#000000"
   stroke-width="0.54"
   id="g159"
   transform="translate(-274.969,-11.789292)">
<polyline
   points="486.057,165.69 486.057,142.741 "
   id="polyline157" />
</g>
<g
   clip-path="url(#clipId0)"
   fill="#000000"
   stroke="#000000"
   stroke-width="0"
   id="g163"
   transform="translate(-274.969,-11.789292)">
<text
   transform="matrix(11.4743,0,0,11.4743,486.86,159.953)"
   font-family="Arial, sans-serif"
   font-size="1.39636px"
   id="text161">I4</text>
</g>
<g
   clip-path="url(#clipId0)"
   fill="none"
   stroke="#00ff00"
   stroke-width="0.54"
   id="g167"
   transform="translate(-274.969,-11.789292)">
<circle
   cx="486.05701"
   cy="142.741"
   r="5.7371502"
   id="circle165" />
</g>
<g
   clip-path="url(#clipId0)"
   fill="none"
   stroke="#000000"
   stroke-width="0.54"
   id="g171"
   transform="translate(-274.969,-11.789292)">
<polyline
   points="514.742,165.69 514.742,142.741 "
   id="polyline169" />
</g>
<g
   clip-path="url(#clipId0)"
   fill="#000000"
   stroke="#000000"
   stroke-width="0"
   id="g175"
   transform="translate(-274.969,-11.789292)">
<text
   transform="matrix(11.4743,0,0,11.4743,515.546,159.856)"
   font-family="Arial, sans-serif"
   font-size="1.39636px"
   id="text173">I5</text>
</g>
<g
   clip-path="url(#clipId0)"
   fill="none"
   stroke="#00ff00"
   stroke-width="0.54"
   id="g179"
   transform="translate(-274.969,-11.789292)">
<circle
   cx="514.742"
   cy="142.741"
   r="5.7371502"
   id="circle177" />
</g>
<g
   clip-path="url(#clipId0)"
   fill="none"
   stroke="#000000"
   stroke-width="0.54"
   id="g183"
   transform="translate(-274.969,-11.789292)">
<polyline
   points="543.428,165.69 543.428,142.741 "
   id="polyline181" />
</g>
<g
   clip-path="url(#clipId0)"
   fill="#000000"
   stroke="#000000"
   stroke-width="0"
   id="g187"
   transform="translate(-274.969,-11.789292)">
<text
   transform="matrix(11.4743,0,0,11.4743,544.231,159.879)"
   font-family="Arial, sans-serif"
   font-size="1.39636px"
   id="text185">I6</text>
</g>
<g
   clip-path="url(#clipId0)"
   fill="none"
   stroke="#00ff00"
   stroke-width="0.54"
   id="g191"
   transform="translate(-274.969,-11.789292)">
<circle
   cx="543.42798"
   cy="142.741"
   r="5.7371502"
   id="circle189" />
</g>
<g
   clip-path="url(#clipId0)"
   fill="none"
   stroke="#000000"
   stroke-width="0.54"
   id="g195"
   transform="translate(-274.969,-11.789292)">
<polyline
   points="572.114,165.69 572.114,142.741 "
   id="polyline193" />
</g>
<g
   clip-path="url(#clipId0)"
   fill="#000000"
   stroke="#000000"
   stroke-width="0"
   id="g199"
   transform="translate(-274.969,-11.789292)">
<text
   transform="matrix(11.4743,0,0,11.4743,572.917,159.953)"
   font-family="Arial, sans-serif"
   font-size="1.39636px"
   id="text197">I7</text>
</g>
<g
   clip-path="url(#clipId0)"
   fill="none"
   stroke="#00ff00"
   stroke-width="0.54"
   id="g203"
   transform="translate(-274.969,-11.789292)">
<circle
   cx="572.11401"
   cy="142.741"
   r="5.7371502"
   id="circle201" />
</g>
<g
   clip-path="url(#clipId0)"
   fill="none"
   stroke="#000000"
   stroke-width="0.54"
   id="g207"
   transform="translate(-274.969,-11.789292)">
<polyline
   points="600.8,165.69 600.8,142.741 "
   id="polyline205" />
</g>
<g
   clip-path="url(#clipId0)"
   fill="#000000"
   stroke="#000000"
   stroke-width="0"
   id="g211"
   transform="translate(-274.969,-11.789292)">
<text
   transform="matrix(11.4743,0,0,11.4743,601.603,159.879)"
   font-family="Arial, sans-serif"
   font-size="1.39636px"
   id="text209">I8</text>
</g>
<g
   clip-path="url(#clipId0)"
   fill="none"
   stroke="#00ff00"
   stroke-width="0.54"
   id="g215"
   transform="translate(-274.969,-11.789292)">
<circle
   cx="600.79999"
   cy="142.741"
   r="5.7371502"
   id="circle213" />
</g>
<g
   clip-path="url(#clipId0)"
   fill="none"
   stroke="#000000"
   stroke-width="0.54"
   id="g219"
   transform="translate(-274.969,-11.789292)">
<polyline
   points="629.485,165.69 629.485,142.741 "
   id="polyline217" />
</g>
<g
   clip-path="url(#clipId0)"
   fill="#000000"
   stroke="#000000"
   stroke-width="0"
   id="g223"
   transform="translate(-274.969,-11.789292)">
<text
   transform="matrix(11.4743,0,0,11.4743,630.288,159.879)"
   font-family="Arial, sans-serif"
   font-size="1.39636px"
   id="text221">I9</text>
</g>
<g
   clip-path="url(#clipId0)"
   fill="none"
   stroke="#00ff00"
   stroke-width="0.54"
   id="g227"
   transform="translate(-274.969,-11.789292)">
<circle
   cx="629.48499"
   cy="142.741"
   r="5.7371502"
   id="circle225" />
</g>
<g
   clip-path="url(#clipId0)"
   fill="none"
   stroke="#000000"
   stroke-width="0.54"
   id="g231"
   transform="translate(-274.969,-11.789292)">
<polyline
   points="658.171,165.69 658.171,142.741 "
   id="polyline229" />
</g>
<g
   clip-path="url(#clipId0)"
   fill="#000000"
   stroke="#000000"
   stroke-width="0"
   id="g235"
   transform="translate(-274.969,-11.789292)">
<text
   transform="matrix(11.4743,0,0,11.4743,658.974,159.879)"
   font-family="Arial, sans-serif"
   font-size="1.39636px"
   id="text233">I10</text>
</g>
<g
   clip-path="url(#clipId0)"
   fill="none"
   stroke="#00ff00"
   stroke-width="0.54"
   id="g239"
   transform="translate(-274.969,-11.789292)">
<circle
   cx="658.17102"
   cy="142.741"
   r="5.7371502"
   id="circle237" />
</g>
<g
   clip-path="url(#clipId0)"
   fill="none"
   stroke="#000000"
   stroke-width="0.54"
   id="g243"
   transform="translate(-274.969,-11.789292)">
<polyline
   points="686.857,165.69 686.857,142.741 "
   id="polyline241" />
</g>
<g
   clip-path="url(#clipId0)"
   fill="#000000"
   stroke="#000000"
   stroke-width="0"
   id="g247"
   transform="translate(-274.969,-11.789292)">
<text
   transform="matrix(11.4743,0,0,11.4743,687.66,159.976)"
   font-family="Arial, sans-serif"
   font-size="1.39636px"
   id="text245">I11</text>
</g>
<g
   clip-path="url(#clipId0)"
   fill="none"
   stroke="#00ff00"
   stroke-width="0.54"
   id="g251"
   transform="translate(-274.969,-11.789292)">
<circle
   cx="686.85699"
   cy="142.741"
   r="5.7371502"
   id="circle249" />
</g>
<g
   clip-path="url(#clipId0)"
   fill="none"
   stroke="#000000"
   stroke-width="0.54"
   id="g255"
   transform="translate(-274.969,-11.789292)">
<polyline
   points="715.543,165.69 715.543,142.741 "
   id="polyline253" />
</g>
<g
   clip-path="url(#clipId0)"
   fill="#000000"
   stroke="#000000"
   stroke-width="0"
   id="g259"
   transform="translate(-274.969,-11.789292)">
<text
   transform="matrix(11.4743,0,0,11.4743,716.346,159.976)"
   font-family="Arial, sans-serif"
   font-size="1.39636px"
   id="text257">I12</text>
</g>
<g
   clip-path="url(#clipId0)"
   fill="none"
   stroke="#00ff00"
   stroke-width="0.54"
   id="g263"
   transform="translate(-274.969,-11.789292)">
<circle
   cx="715.54303"
   cy="142.741"
   r="5.7371502"
   id="circle261" />
</g>
<g
   clip-path="url(#clipId0)"
   fill="none"
   stroke="#000000"
   stroke-width="0.54"
   id="g267"
   transform="translate(-274.969,-11.789292)">
<polyline
   points="313.942,647.61 313.942,624.662 "
   id="polyline265" />
</g>
<g
   clip-path="url(#clipId0)"
   fill="#000000"
   stroke="#000000"
   stroke-width="0"
   id="g271"
   transform="translate(-274.969,-11.789292)">
<text
   transform="matrix(11.4743,0,0,11.4743,315.549,642.068)"
   font-family="Arial, sans-serif"
   font-size="1.39636px"
   id="text269">Q1</text>
</g>
<g
   clip-path="url(#clipId0)"
   fill="none"
   stroke="#000000"
   stroke-width="0.54"
   id="g275"
   transform="translate(-274.969,-11.789292)">
<polyline
   points="342.628,647.61 342.628,624.662 "
   id="polyline273" />
</g>
<g
   clip-path="url(#clipId0)"
   fill="#000000"
   stroke="#000000"
   stroke-width="0"
   id="g279"
   transform="translate(-274.969,-11.789292)">
<text
   transform="matrix(11.4743,0,0,11.4743,344.854,641.919)"
   font-family="Arial, sans-serif"
   font-size="1.39636px"
   id="text277">X1</text>
</g>
<g
   clip-path="url(#clipId0)"
   fill="none"
   stroke="#000000"
   stroke-width="0.54"
   id="g283"
   transform="translate(-274.969,-11.789292)">
<polyline
   points="371.314,647.61 371.314,624.662 "
   id="polyline281" />
</g>
<g
   clip-path="url(#clipId0)"
   fill="#000000"
   stroke="#000000"
   stroke-width="0"
   id="g287"
   transform="translate(-274.969,-11.789292)">
<text
   transform="matrix(11.4743,0,0,11.4743,372.92,642.068)"
   font-family="Arial, sans-serif"
   font-size="1.39636px"
   id="text285">Q2</text>
</g>
<g
   clip-path="url(#clipId0)"
   fill="none"
   stroke="#000000"
   stroke-width="0.54"
   id="g291"
   transform="translate(-274.969,-11.789292)">
<polyline
   points="428.685,647.61 428.685,624.662 "
   id="polyline289" />
</g>
<g
   clip-path="url(#clipId0)"
   fill="#000000"
   stroke="#000000"
   stroke-width="0"
   id="g295"
   transform="translate(-274.969,-11.789292)">
<text
   transform="matrix(11.4743,0,0,11.4743,430.292,642.068)"
   font-family="Arial, sans-serif"
   font-size="1.39636px"
   id="text293">Q3</text>
</g>
<g
   clip-path="url(#clipId0)"
   fill="none"
   stroke="#000000"
   stroke-width="0.54"
   id="g299"
   transform="translate(-274.969,-11.789292)">
<polyline
   points="457.371,647.61 457.371,624.662 "
   id="polyline297" />
</g>
<g
   clip-path="url(#clipId0)"
   fill="#000000"
   stroke="#000000"
   stroke-width="0"
   id="g303"
   transform="translate(-274.969,-11.789292)">
<text
   transform="matrix(11.4743,0,0,11.4743,459.597,641.919)"
   font-family="Arial, sans-serif"
   font-size="1.39636px"
   id="text301">X2</text>
</g>
<g
   clip-path="url(#clipId0)"
   fill="none"
   stroke="#000000"
   stroke-width="0.54"
   id="g307"
   transform="translate(-274.969,-11.789292)">
<polyline
   points="486.057,647.61 486.057,624.662 "
   id="polyline305" />
</g>
<g
   clip-path="url(#clipId0)"
   fill="#000000"
   stroke="#000000"
   stroke-width="0"
   id="g311"
   transform="translate(-274.969,-11.789292)">
<text
   transform="matrix(11.4743,0,0,11.4743,487.663,642.068)"
   font-family="Arial, sans-serif"
   font-size="1.39636px"
   id="text309">Q4</text>
</g>
<g
   clip-path="url(#clipId0)"
   fill="none"
   stroke="#000000"
   stroke-width="0.54"
   id="g315"
   transform="translate(-274.969,-11.789292)">
<polyline
   points="543.428,647.61 543.428,624.662 "
   id="polyline313" />
</g>
<g
   clip-path="url(#clipId0)"
   fill="#000000"
   stroke="#000000"
   stroke-width="0"
   id="g319"
   transform="translate(-274.969,-11.789292)">
<text
   transform="matrix(11.4743,0,0,11.4743,545.034,642.068)"
   font-family="Arial, sans-serif"
   font-size="1.39636px"
   id="text317">Q5</text>
</g>
<g
   clip-path="url(#clipId0)"
   fill="none"
   stroke="#000000"
   stroke-width="0.54"
   id="g323"
   transform="translate(-274.969,-11.789292)">
<polyline
   points="572.114,647.61 572.114,624.662 "
   id="polyline321" />
</g>
<g
   clip-path="url(#clipId0)"
   fill="#000000"
   stroke="#000000"
   stroke-width="0"
   id="g327"
   transform="translate(-274.969,-11.789292)">
<text
   transform="matrix(11.4743,0,0,11.4743,574.34,641.919)"
   font-family="Arial, sans-serif"
   font-size="1.39636px"
   id="text325">X3</text>
</g>
<g
   clip-path="url(#clipId0)"
   fill="none"
   stroke="#000000"
   stroke-width="0.54"
   id="g331"
   transform="translate(-274.969,-11.789292)">
<polyline
   points="600.8,647.61 600.8,624.662 "
   id="polyline329" />
</g>
<g
   clip-path="url(#clipId0)"
   fill="#000000"
   stroke="#000000"
   stroke-width="0"
   id="g335"
   transform="translate(-274.969,-11.789292)">
<text
   transform="matrix(11.4743,0,0,11.4743,602.406,642.068)"
   font-family="Arial, sans-serif"
   font-size="1.39636px"
   id="text333">Q6</text>
</g>
<g
   clip-path="url(#clipId0)"
   fill="none"
   stroke="#000000"
   stroke-width="0.54"
   id="g339"
   transform="translate(-274.969,-11.789292)">
<polyline
   points="658.171,647.61 658.171,624.662 "
   id="polyline337" />
</g>
<g
   clip-path="url(#clipId0)"
   fill="#000000"
   stroke="#000000"
   stroke-width="0"
   id="g343"
   transform="translate(-274.969,-11.789292)">
<text
   transform="matrix(11.4743,0,0,11.4743,659.777,642.068)"
   font-family="Arial, sans-serif"
   font-size="1.39636px"
   id="text341">Q7</text>
</g>
<g
   clip-path="url(#clipId0)"
   fill="none"
   stroke="#000000"
   stroke-width="0.54"
   id="g347"
   transform="translate(-274.969,-11.789292)">
<polyline
   points="686.857,647.61 686.857,624.662 "
   id="polyline345" />
</g>
<g
   clip-path="url(#clipId0)"
   fill="#000000"
   stroke="#000000"
   stroke-width="0"
   id="g351"
   transform="translate(-274.969,-11.789292)">
<text
   transform="matrix(11.4743,0,0,11.4743,689.083,641.873)"
   font-family="Arial, sans-serif"
   font-size="1.39636px"
   id="text349">X4</text>
</g>
<g
   clip-path="url(#clipId0)"
   fill="none"
   stroke="#000000"
   stroke-width="0.54"
   id="g355"
   transform="translate(-274.969,-11.789292)">
<polyline
   points="715.543,647.61 715.543,624.662 "
   id="polyline353" />
</g>
<g
   clip-path="url(#clipId0)"
   fill="#000000"
   stroke="#000000"
   stroke-width="0"
   id="g359"
   transform="translate(-274.969,-11.789292)">
<text
   transform="matrix(11.4743,0,0,11.4743,717.149,642.068)"
   font-family="Arial, sans-serif"
   font-size="1.39636px"
   id="text357">Q8</text>
</g>
<g
   clip-path="url(#clipId0)"
   fill="none"
   stroke="#000000"
   stroke-width="0.54"
   id="g373"
   transform="translate(-274.969,-11.789292)">
<polyline
   points="434.422,607.45 451.634,602.861 "
   id="polyline361" />
<polyline
   points="480.319,607.45 463.108,602.861 "
   id="polyline363" />
<polyline
   points="549.165,607.45 566.377,602.861 "
   id="polyline365" />
<polyline
   points="595.062,607.45 577.851,602.861 "
   id="polyline367" />
<polyline
   points="663.908,607.45 681.12,602.861 "
   id="polyline369" />
<polyline
   points="709.805,607.45 692.594,602.861 "
   id="polyline371" />
</g>
<g
   clip-path="url(#clipId0)"
   fill="#ff0000"
   stroke="#ff0000"
   stroke-width="0"
   id="g379"
   transform="translate(-274.969,-11.789292)">
<text
   transform="matrix(17.2114,0,0,17.2114,483.219,476.616)"
   font-family="Arial, sans-serif"
   font-size="1.39636px"
   id="text375">Module Connector</text>
<text
   transform="matrix(17.2114,0,0,17.2114,391,505.577)"
   font-family="Arial, sans-serif"
   font-size="1.39636px"
   id="text377">(with compatibility whitelist)</text>
</g>
<g
   clip-path="url(#clipId0)"
   fill="none"
   stroke="#ff0000"
   stroke-width="0.54"
   id="g383"
   transform="translate(-274.969,-11.789292)">
<polyline
   points="682.12,481.384 392.463,481.384 "
   id="polyline381" />
</g>
<g
   clip-path="url(#clipId0)"
   fill="#ff0000"
   stroke="#ff0000"
   stroke-width="0.54"
   id="g387"
   transform="translate(-274.969,-11.789292)">
<polygon
   points="736.176,410.157 732.849,408.271 740.171,399.233 "
   id="polygon385" />
</g>
<g
   clip-path="url(#clipId0)"
   fill="none"
   stroke="#ff0000"
   stroke-width="0.54"
   id="g393"
   transform="translate(-274.969,-11.789292)">
<polyline
   points="734.512,409.214 693.595,481.384 "
   id="polyline389" />
<polyline
   points="693.595,481.384 682.12,481.384 "
   id="polyline391" />
</g>
<g
   clip-path="url(#clipId0)"
   fill="#00ff00"
   stroke="#00ff00"
   stroke-width="0"
   id="g399"
   transform="translate(-274.969,-11.789292)">
<text
   transform="matrix(17.2114,0,0,17.2114,392.96,29.2862)"
   font-family="Arial, sans-serif"
   font-size="1.39636px"
   id="text395">Connector Points</text>
<text
   transform="matrix(17.2114,0,0,17.2114,408.949,58.2474)"
   font-family="Arial, sans-serif"
   font-size="1.39636px"
   id="text397">(with ID-Labels)</text>
</g>
<g
   clip-path="url(#clipId0)"
   fill="none"
   stroke="#00ff00"
   stroke-width="0.54"
   id="g403"
   transform="translate(-274.969,-11.789292)">
<polyline
   points="578.591,34.0538 394.164,34.0538 "
   id="polyline401" />
</g>
<g
   clip-path="url(#clipId0)"
   fill="#00ff00"
   stroke="#00ff00"
   stroke-width="0.54"
   id="g407"
   transform="translate(-274.969,-11.789292)">
<polygon
   points="705.459,131.205 707.885,128.248 715.543,137.004 "
   id="polygon405" />
</g>
<g
   clip-path="url(#clipId0)"
   fill="none"
   stroke="#00ff00"
   stroke-width="0.54"
   id="g411"
   transform="translate(-274.969,-11.789292)">
<polyline
   points="706.672,129.726 590.065,34.0538 "
   id="polyline409" />
</g>
<g
   clip-path="url(#clipId0)"
   fill="#00ff00"
   stroke="#00ff00"
   stroke-width="0.54"
   id="g415"
   transform="translate(-274.969,-11.789292)">
<polygon
   points="622.089,127.131 625.681,125.816 627.828,137.249 "
   id="polygon413" />
</g>
<g
   clip-path="url(#clipId0)"
   fill="none"
   stroke="#00ff00"
   stroke-width="0.54"
   id="g419"
   transform="translate(-274.969,-11.789292)">
<polyline
   points="623.885,126.473 590.065,34.0538 "
   id="polyline417" />
</g>
<g
   clip-path="url(#clipId0)"
   fill="#00ff00"
   stroke="#00ff00"
   stroke-width="0.54"
   id="g423"
   transform="translate(-274.969,-11.789292)">
<polygon
   points="572.966,125.437 576.739,126.063 572.975,137.069 "
   id="polygon421" />
</g>
<g
   clip-path="url(#clipId0)"
   fill="none"
   stroke="#00ff00"
   stroke-width="0.54"
   id="g429"
   transform="translate(-274.969,-11.789292)">
<polyline
   points="574.853,125.75 590.065,34.0538 "
   id="polyline425" />
<polyline
   points="590.065,34.0538 578.591,34.0538 "
   id="polyline427" />
</g>
<g
   clip-path="url(#clipId0)"
   fill="#000000"
   stroke="#000000"
   stroke-width="0"
   id="g433"
   transform="translate(-274.969,-11.789292)">
<text
   transform="matrix(17.2114,0,0,17.2114,295.772,329.17)"
   font-family="Arial, sans-serif"
   font-size="1.39636px"
   id="text431">Element Title/Name</text>
</g>
<g
   clip-path="url(#clipId0)"
   fill="none"
   stroke="#000000"
   stroke-width="0.54"
   id="g437"
   transform="translate(-274.969,-11.789292)">
<polyline
   points="508.012,332.337 297.665,332.337 "
   id="polyline435" />
</g>
<g
   clip-path="url(#clipId0)"
   fill="#000000"
   stroke="#000000"
   stroke-width="0.54"
   id="g441"
   transform="translate(-274.969,-11.789292)">
<polygon
   points="574.405,234.076 571.035,232.267 578.147,223.061 "
   id="polygon439" />
</g>
<g
   clip-path="url(#clipId0)"
   fill="none"
   stroke="#000000"
   stroke-width="0.54"
   id="g447"
   transform="translate(-274.969,-11.789292)">
<polyline
   points="572.72,233.171 519.486,332.337 "
   id="polyline443" />
<polyline
   points="519.486,332.337 508.012,332.337 "
   id="polyline445" />
</g>
<g
   clip-path="url(#clipId0)"
   fill="#00ff00"
   stroke="#00ff00"
   stroke-width="0"
   id="g453"
   transform="translate(-274.969,-11.789292)">
<text
   transform="matrix(17.2114,0,0,17.2114,274.035,726.416)"
   font-family="Arial, sans-serif"
   font-size="1.39636px"
   id="text449">Connector Points</text>
<text
   transform="matrix(17.2114,0,0,17.2114,290.024,755.378)"
   font-family="Arial, sans-serif"
   font-size="1.39636px"
   id="text451">(with ID-Labels)</text>
</g>
<g
   clip-path="url(#clipId0)"
   fill="none"
   stroke="#00ff00"
   stroke-width="0.54"
   id="g457"
   transform="translate(-274.969,-11.789292)">
<polyline
   points="459.666,731.184 275.239,731.184 "
   id="polyline455" />
</g>
<g
   clip-path="url(#clipId0)"
   fill="#00ff00"
   stroke="#00ff00"
   stroke-width="0.54"
   id="g461"
   transform="translate(-274.969,-11.789292)">
<polygon
   points="485.775,664.977 482.019,664.257 486.057,653.347 "
   id="polygon459" />
</g>
<g
   clip-path="url(#clipId0)"
   fill="none"
   stroke="#00ff00"
   stroke-width="0.54"
   id="g465"
   transform="translate(-274.969,-11.789292)">
<polyline
   points="483.897,664.617 471.14,731.184 "
   id="polyline463" />
</g>
<g
   clip-path="url(#clipId0)"
   fill="#00ff00"
   stroke="#00ff00"
   stroke-width="0.54"
   id="g469"
   transform="translate(-274.969,-11.789292)">
<polygon
   points="564.648,661.831 562.32,658.797 572.587,653.328 "
   id="polygon467" />
</g>
<g
   clip-path="url(#clipId0)"
   fill="none"
   stroke="#00ff00"
   stroke-width="0.54"
   id="g473"
   transform="translate(-274.969,-11.789292)">
<polyline
   points="563.484,660.314 471.14,731.184 "
   id="polyline471" />
</g>
<g
   clip-path="url(#clipId0)"
   fill="#00ff00"
   stroke="#00ff00"
   stroke-width="0.54"
   id="g477"
   transform="translate(-274.969,-11.789292)">
<polygon
   points="648.615,659.508 647.147,655.976 658.477,653.339 "
   id="polygon475" />
</g>
<g
   clip-path="url(#clipId0)"
   fill="none"
   stroke="#00ff00"
   stroke-width="0.54"
   id="g483"
   transform="translate(-274.969,-11.789292)">
<polyline
   points="647.881,657.742 471.14,731.184 "
   id="polyline479" />
<polyline
   points="471.14,731.184 459.666,731.184 "
   id="polyline481" />
</g>
</svg>
